<svg width="17" height="13" viewBox="0 0 17 13" fill="none" xmlns="http://www.w3.org/2000/svg">
  <path
    d="M11.6762 6.48316L16.0331 2.69783V10.2253L11.6762 6.48316ZM6.06192 7.1242L7.59192 8.45233C7.83204 8.65633 8.14513 8.77958 8.48725 8.77958H8.49929H8.49858H8.5085C8.85133 8.77958 9.16442 8.65562 9.40738 8.4502L9.40525 8.45162L10.9353 7.1235L15.5862 11.1178H1.41313L6.06192 7.1242ZM1.40675 1.80037H15.5947L8.77979 7.7192C8.70317 7.77981 8.60832 7.81276 8.51063 7.8127H8.50071H8.50142H8.4915C8.39346 7.81283 8.29829 7.77961 8.22163 7.7185L8.22233 7.7192L1.40675 1.80037ZM0.966875 2.69712L5.32313 6.48245L0.966875 10.2225V2.69712ZM16.2669 0.968079C16.0969 0.883079 15.8971 0.833496 15.6853 0.833496H1.31679C1.11149 0.833545 0.909008 0.881316 0.725333 0.973038L0.733125 0.969496C0.51324 1.07795 0.328063 1.24573 0.198513 1.45389C0.0689638 1.66204 0.000203538 1.90228 0 2.14745L0 10.7693C0.000374994 11.1182 0.139154 11.4528 0.385886 11.6995C0.632618 11.9462 0.967152 12.085 1.31608 12.0854H15.6832C16.0321 12.085 16.3667 11.9462 16.6134 11.6995C16.8601 11.4528 16.9989 11.1182 16.9993 10.7693V2.15029V2.14745C16.9993 1.6325 16.7025 1.18625 16.2704 0.971621L16.2626 0.968079H16.2669Z"
    fill="#858585" />
</svg>